<svg xmlns="http://www.w3.org/2000/svg" viewBox="0 0 650 200" width="100%" height="100%">
  <defs>
    <filter id="shadow3D" x="-10%" y="-10%" width="130%" height="130%">
      <feDropShadow dx="3" dy="4" stdDeviation="3" flood-color="#000000" flood-opacity="0.25"/>
    </filter>
    
    <linearGradient id="blueGrad" x1="0%" y1="0%" x2="100%" y2="100%">
      <stop offset="0%" stop-color="#3b82f6" />
      <stop offset="100%" stop-color="#1e3a8a" />
    </linearGradient>
    <linearGradient id="goldGrad" x1="0%" y1="0%" x2="100%" y2="100%">
      <stop offset="0%" stop-color="#e5e0d8" />
      <stop offset="100%" stop-color="#b5a892" />
    </linearGradient>
  </defs>

  <g filter="url(#shadow3D)">
    <path d="M 30,50 Q 80,140 140,160 T 190,110 Q 150,170 100,165 T 20,70 Z" fill="url(#goldGrad)" />
    <path d="M 10,40 Q 50,150 120,180 T 180,185 Q 110,195 50,150 T 5,60 Z" fill="url(#blueGrad)" />
    <path d="M 140,50 Q 130,70 150,80 Q 170,90 200,45 Q 170,75 150,70 Q 145,60 140,50 Z" fill="url(#blueGrad)" />
  </g>

  <g filter="url(#shadow3D)">
    <text x="210" y="125" font-family="Impact, 'Arial Black', sans-serif" font-size="105" font-weight="900" fill="#ffffff" stroke="#1e3a8a" stroke-width="4" letter-spacing="2">Pilot</text>
    
    <rect x="215" y="145" width="410" height="3" fill="#a3a3a3" />
    
    <text x="215" y="180" font-family="Arial, Helvetica, sans-serif" font-size="28" font-weight="bold" fill="#1e3a8a" letter-spacing="1.2">CYBER SOLUTIONS LLP</text>
  </g>
</svg>